<svg xmlns="http://www.w3.org/2000/svg" viewBox="0 0 27 21" width="27" height="21">
	<style>
		tspan { white-space:pre }
		.shp0 { fill: #000000 } 
	</style>
	<g id="Head">
		<g id="Icon">
			<path id="cart" class="shp0" d="M26.8 5.56C26.6 5.3 26.28 5.14 25.95 5.14L9.8 5.14C9.56 5.14 9.37 5.33 9.37 5.56C9.37 5.79 9.56 5.98 9.8 5.98L25.95 5.98C26.01 5.98 26.06 6.01 26.09 6.05C26.13 6.1 26.14 6.16 26.12 6.22L23.7 13.78C23.6 14.08 23.32 14.28 23 14.28L9 14.28C8.64 14.28 8.33 14.04 8.25 13.7L5.05 0.71C4.95 0.29 4.57 0 4.12 0L0.44 0C0.19 0 0 0.19 0 0.42C0 0.65 0.19 0.84 0.44 0.84L4.12 0.84C4.16 0.84 4.2 0.87 4.21 0.91L7.4 13.89C7.58 14.62 8.24 15.12 9 15.12L23 15.12C23.7 15.12 24.32 14.68 24.53 14.02L26.95 6.46C27.05 6.16 26.99 5.82 26.8 5.56ZM12.45 10.92C12.2 10.92 12.01 11.11 12.01 11.34C12.01 11.57 12.2 11.76 12.45 11.76L21.52 11.76C21.76 11.76 21.96 11.57 21.96 11.34C21.96 11.11 21.76 10.92 21.52 10.92L12.45 10.92ZM22.86 8.82C22.86 8.59 22.67 8.4 22.43 8.4L11.54 8.4C11.3 8.4 11.1 8.59 11.1 8.82C11.1 9.05 11.3 9.24 11.54 9.24L22.43 9.24C22.67 9.24 22.86 9.05 22.86 8.82ZM12.63 16.8C11.43 16.8 10.45 17.74 10.45 18.9C10.45 20.06 11.43 21 12.63 21C13.83 21 14.81 20.06 14.81 18.9C14.81 17.74 13.83 16.8 12.63 16.8ZM12.63 20.16C11.91 20.16 11.32 19.59 11.32 18.9C11.32 18.21 11.91 17.64 12.63 17.64C13.35 17.64 13.94 18.21 13.94 18.9C13.94 19.59 13.35 20.16 12.63 20.16ZM19.6 16.8C18.4 16.8 17.42 17.74 17.42 18.9C17.42 20.06 18.4 21 19.6 21C20.8 21 21.77 20.06 21.77 18.9C21.77 17.74 20.8 16.8 19.6 16.8ZM19.6 20.16C18.88 20.16 18.29 19.59 18.29 18.9C18.29 18.21 18.88 17.64 19.6 17.64C20.32 17.64 20.9 18.21 20.9 18.9C20.9 19.59 20.32 20.16 19.6 20.16Z" />
		</g>
	</g>
</svg>