<svg xmlns="http://www.w3.org/2000/svg" viewBox="0 0 16 16" width="16" height="16">
	<style>
		tspan { white-space:pre }
		.shp0 { fill: #000000 } 
	</style>
	<g id="Head">
		<g id="Search">
			<path id="Search" class="shp0" d="M15.93 15.49L11.26 10.82C12.45 9.67 13.19 8.09 13.19 6.34C13.19 2.85 10.23 0 6.6 0C2.96 0 0 2.85 0 6.34C0 9.84 2.96 12.69 6.6 12.69C8.19 12.69 9.66 12.14 10.8 11.23L15.48 15.91C15.54 15.97 15.62 16 15.7 16C15.78 16 15.86 15.97 15.92 15.92C16.05 15.8 16.05 15.61 15.93 15.49ZM6.6 12.08C3.3 12.08 0.63 9.51 0.63 6.34C0.63 3.18 3.3 0.6 6.6 0.6C9.89 0.6 12.56 3.18 12.56 6.34C12.56 9.51 9.89 12.08 6.6 12.08Z" />
		</g>
	</g>
</svg>