<svg aria-hidden="true" style="position: absolute; width: 0; height: 0; overflow: hidden;" version="1.1" xmlns="http://www.w3.org/2000/svg" xmlns:xlink="http://www.w3.org/1999/xlink">
<defs>
<symbol id="icon-cart" viewBox="0 0 41 32">
<path d="M40.838 8.472c-0.305-0.396-0.792-0.64-1.295-0.64h-24.61c-0.366 0-0.655 0.29-0.655 0.64s0.29 0.64 0.655 0.64h24.61c0.091 0 0.168 0.046 0.213 0.107 0.061 0.076 0.076 0.168 0.046 0.259l-3.688 11.52c-0.152 0.457-0.579 0.762-1.067 0.762h-21.333c-0.549 0-1.021-0.366-1.143-0.884l-4.876-19.794c-0.152-0.64-0.731-1.082-1.417-1.082h-5.608c-0.381 0-0.67 0.29-0.67 0.64s0.29 0.64 0.67 0.64h5.608c0.061 0 0.122 0.046 0.137 0.107l4.861 19.779c0.274 1.112 1.28 1.874 2.438 1.874h21.333c1.067 0 2.011-0.67 2.331-1.676l3.688-11.52c0.152-0.457 0.061-0.975-0.229-1.371zM18.971 16.64c-0.381 0-0.67 0.29-0.67 0.64s0.29 0.64 0.67 0.64h13.821c0.366 0 0.67-0.29 0.67-0.64s-0.305-0.64-0.67-0.64h-13.821zM34.834 13.44c0-0.35-0.29-0.64-0.655-0.64h-16.594c-0.366 0-0.67 0.29-0.67 0.64s0.305 0.64 0.67 0.64h16.594c0.366 0 0.655-0.29 0.655-0.64zM19.246 25.6c-1.829 0-3.322 1.432-3.322 3.2s1.493 3.2 3.322 3.2c1.829 0 3.322-1.432 3.322-3.2s-1.493-3.2-3.322-3.2zM19.246 30.72c-1.097 0-1.996-0.869-1.996-1.92s0.899-1.92 1.996-1.92c1.097 0 1.996 0.869 1.996 1.92s-0.899 1.92-1.996 1.92zM29.867 25.6c-1.829 0-3.322 1.432-3.322 3.2s1.493 3.2 3.322 3.2c1.829 0 3.307-1.432 3.307-3.2s-1.478-3.2-3.307-3.2zM29.867 30.72c-1.097 0-1.996-0.869-1.996-1.92s0.899-1.92 1.996-1.92c1.097 0 1.981 0.869 1.981 1.92s-0.884 1.92-1.981 1.92z"></path>
</symbol>
<symbol id="icon-search" viewBox="0 0 32 32">
<path d="M31.86 30.98l-9.34-9.34c2.38-2.3 3.86-5.46 3.86-8.96 0-6.98-5.92-12.68-13.18-12.68-7.28 0-13.2 5.7-13.2 12.68 0 7 5.92 12.7 13.2 12.7 3.18 0 6.12-1.1 8.4-2.92l9.36 9.36c0.12 0.12 0.28 0.18 0.44 0.18s0.32-0.060 0.44-0.16c0.26-0.24 0.26-0.62 0.020-0.86zM13.2 24.16c-6.6 0-11.94-5.14-11.94-11.48 0-6.32 5.34-11.48 11.94-11.48 6.58 0 11.92 5.16 11.92 11.48 0 6.34-5.34 11.48-11.92 11.48z"></path>
</symbol>
<symbol id="icon-user" viewBox="0 0 32 32">
<path d="M27.316 4.684c-6.24-6.24-16.393-6.24-22.633 0-2.182 2.182-3.68 4.931-4.335 7.956-0.625 2.938-0.422 5.978 0.596 8.785 0.131 0.349 0.495 0.524 0.829 0.393 0.349-0.116 0.524-0.495 0.393-0.829-0.931-2.589-1.12-5.382-0.538-8.087 0.596-2.764 1.964-5.295 3.971-7.302 5.731-5.731 15.069-5.731 20.8 0 2.72 2.735 4.247 6.356 4.291 10.225 0.058 3.855-1.382 7.505-4.029 10.298-0.044 0.029-0.073 0.058-0.102 0.102-0.058 0.058-0.102 0.116-0.16 0.175-5.731 5.731-15.069 5.731-20.8 0-0.029-0.029-0.058-0.058-0.087-0.102 0-0.058 0-0.116 0-0.175 0-0.131 0-0.262 0.015-0.393 0-0.044 0-0.087 0-0.131 0-0.087 0.015-0.175 0.015-0.262 0-0.044 0.015-0.102 0.015-0.145 0-0.073 0.015-0.16 0.015-0.233 0.015-0.058 0.015-0.116 0.029-0.16 0.015-0.073 0.015-0.145 0.029-0.218 0-0.058 0.015-0.116 0.029-0.175 0.015-0.073 0.015-0.145 0.029-0.204s0.029-0.116 0.044-0.175c0-0.073 0.015-0.131 0.029-0.204 0.015-0.058 0.029-0.116 0.044-0.175s0.029-0.131 0.058-0.204c0.015-0.044 0.029-0.102 0.044-0.16 0.015-0.073 0.029-0.131 0.058-0.204 0.015-0.058 0.029-0.102 0.044-0.16 0.029-0.073 0.044-0.131 0.073-0.204 0.015-0.044 0.029-0.102 0.058-0.16 0.015-0.058 0.044-0.131 0.073-0.189 0.015-0.058 0.029-0.102 0.058-0.16s0.044-0.131 0.073-0.189c0.029-0.058 0.044-0.102 0.073-0.16s0.058-0.116 0.087-0.189c0.015-0.044 0.044-0.102 0.073-0.145 0.029-0.073 0.058-0.131 0.087-0.189 0.029-0.044 0.058-0.102 0.087-0.145 0.029-0.073 0.058-0.131 0.087-0.189 0.029-0.044 0.058-0.102 0.087-0.145 0.029-0.058 0.073-0.116 0.102-0.175 0.029-0.044 0.058-0.102 0.087-0.145 0.044-0.058 0.073-0.116 0.116-0.175 0.029-0.044 0.058-0.087 0.102-0.145 0.029-0.058 0.073-0.102 0.116-0.16 0.029-0.044 0.058-0.102 0.087-0.145 0.044-0.044 0.087-0.102 0.131-0.16 0.029-0.044 0.073-0.087 0.102-0.131 0.044-0.058 0.087-0.116 0.131-0.16 0.029-0.044 0.073-0.087 0.102-0.131 0.058-0.058 0.102-0.102 0.145-0.16 0.029-0.044 0.073-0.087 0.116-0.131s0.087-0.102 0.131-0.145c0.044-0.044 0.087-0.087 0.116-0.116 0.058-0.058 0.102-0.102 0.16-0.16 0.029-0.029 0.073-0.073 0.116-0.102 0.044-0.058 0.102-0.102 0.16-0.145 0.029-0.044 0.073-0.073 0.116-0.116 0.058-0.044 0.116-0.087 0.16-0.145 0.044-0.029 0.087-0.073 0.131-0.102 0.058-0.044 0.116-0.087 0.175-0.131 0.044-0.044 0.087-0.073 0.116-0.102 0.073-0.044 0.131-0.087 0.189-0.131 0.044-0.029 0.087-0.058 0.131-0.087 0.058-0.058 0.131-0.102 0.204-0.145 0.044-0.029 0.073-0.058 0.102-0.073 0.102-0.058 0.189-0.116 0.291-0.175 0.015-0.015 0.029-0.029 0.044-0.029 0.102-0.073 0.218-0.131 0.335-0.189 0.029-0.029 0.073-0.044 0.116-0.073 0.073-0.029 0.145-0.073 0.218-0.116 0.058-0.015 0.102-0.044 0.145-0.073 0.073-0.029 0.131-0.058 0.189-0.087 1.178 1.135 2.764 1.775 4.393 1.775s3.215-0.64 4.393-1.775c2.298 1.076 4.189 2.982 5.207 5.309 0.145 0.335 0.538 0.48 0.858 0.335 0.335-0.145 0.48-0.524 0.335-0.858-1.12-2.545-3.069-4.582-5.527-5.804 0.713-1.062 1.091-2.298 1.091-3.578 0-3.505-2.851-6.356-6.356-6.356-0.364 0-0.655 0.291-0.655 0.64 0 0.364 0.291 0.655 0.655 0.655 2.793 0 5.062 2.269 5.062 5.062 0 1.251-0.465 2.458-1.309 3.389 0 0 0 0 0 0-0.96 1.062-2.327 1.673-3.753 1.673s-2.793-0.611-3.753-1.673c0 0 0 0 0 0-0.844-0.931-1.309-2.138-1.309-3.389 0-1.353 0.538-2.633 1.498-3.593 0.262-0.262 0.262-0.669 0.015-0.931-0.262-0.247-0.669-0.247-0.931 0-1.207 1.207-1.876 2.807-1.876 4.524 0 1.28 0.378 2.516 1.091 3.578 0 0-0.015 0-0.015 0-0.044 0.029-0.102 0.058-0.145 0.087-0.087 0.029-0.16 0.073-0.233 0.116-0.058 0.029-0.102 0.058-0.16 0.087-0.073 0.044-0.145 0.087-0.218 0.116-0.044 0.044-0.102 0.073-0.16 0.102-0.073 0.044-0.131 0.087-0.204 0.131-0.044 0.029-0.102 0.073-0.16 0.102-0.058 0.044-0.131 0.087-0.189 0.131s-0.102 0.073-0.16 0.116c-0.058 0.044-0.116 0.087-0.189 0.131-0.044 0.044-0.102 0.087-0.145 0.116-0.058 0.058-0.116 0.102-0.175 0.145s-0.102 0.087-0.16 0.131c-0.058 0.044-0.116 0.087-0.175 0.145-0.044 0.044-0.087 0.087-0.145 0.131s-0.102 0.102-0.16 0.145c-0.044 0.044-0.102 0.087-0.145 0.131-0.058 0.058-0.102 0.102-0.16 0.16-0.044 0.044-0.087 0.087-0.131 0.145-0.058 0.044-0.102 0.102-0.16 0.16-0.044 0.044-0.087 0.087-0.131 0.145s-0.102 0.116-0.145 0.175c-0.044 0.044-0.087 0.087-0.116 0.131-0.058 0.058-0.102 0.131-0.16 0.189-0.029 0.044-0.073 0.087-0.102 0.145-0.058 0.058-0.116 0.131-0.16 0.204-0.029 0.044-0.058 0.073-0.102 0.116-0.058 0.102-0.116 0.189-0.189 0.276-0.015 0.029-0.029 0.044-0.044 0.073-0.073 0.116-0.145 0.233-0.218 0.349-0.029 0.044-0.058 0.073-0.073 0.116-0.058 0.087-0.102 0.16-0.145 0.233-0.029 0.058-0.058 0.102-0.087 0.16-0.029 0.073-0.073 0.145-0.116 0.218-0.029 0.044-0.058 0.102-0.073 0.16-0.044 0.058-0.073 0.131-0.116 0.204-0.015 0.058-0.044 0.116-0.073 0.175-0.029 0.073-0.058 0.131-0.102 0.204-0.015 0.058-0.044 0.116-0.073 0.175-0.029 0.073-0.058 0.145-0.087 0.218-0.015 0.058-0.044 0.116-0.058 0.175-0.029 0.073-0.058 0.145-0.087 0.218-0.015 0.058-0.044 0.116-0.058 0.175-0.029 0.073-0.044 0.145-0.073 0.218-0.015 0.058-0.044 0.131-0.058 0.189-0.015 0.073-0.044 0.145-0.058 0.218-0.015 0.058-0.029 0.131-0.058 0.189-0.015 0.073-0.029 0.145-0.044 0.218s-0.029 0.131-0.044 0.189c-0.029 0.073-0.044 0.16-0.058 0.233 0 0.058-0.015 0.131-0.029 0.189-0.015 0.073-0.029 0.16-0.044 0.233-0.015 0.058-0.015 0.131-0.029 0.189-0.015 0.073-0.015 0.16-0.029 0.247-0.015 0.058-0.015 0.116-0.029 0.175 0 0.087-0.015 0.175-0.015 0.262-0.015 0.058-0.015 0.116-0.015 0.175-0.015 0.087-0.015 0.189-0.015 0.276-0.015 0.058-0.015 0.102-0.015 0.145 0 0.145-0.015 0.291-0.015 0.436 0 0.16 0.015 0.305 0.015 0.48 0 0.029 0.015 0.073 0.015 0.102 0 0 0 0.015 0 0.015 0.015 0.029 0.029 0.073 0.044 0.102 0 0 0 0 0 0 0.015 0.044 0.029 0.073 0.044 0.102 0 0 0.015 0 0.015 0.015 0.015 0.029 0.044 0.058 0.058 0.073 0 0 0 0.015 0.015 0.015l0.073 0.087c0.073 0.073 0.131 0.131 0.204 0.204 3.127 3.127 7.215 4.684 11.316 4.684s8.204-1.556 11.316-4.684c0.073-0.073 0.131-0.131 0.204-0.204l0.073-0.087c2.895-3.040 4.451-7.025 4.407-11.215-0.044-4.204-1.716-8.16-4.684-11.127z"></path>
</symbol>
<symbol id="burger-icon" viewBox="0 0 48 32">
<path d="M0 5.333v-5.333h48v5.333h-48zM0 18.667h48v-5.333h-48v5.333zM0 32h48v-5.333h-48v5.333z"></path>
</symbol>
</defs>
</svg>
