<svg xmlns="http://www.w3.org/2000/svg" viewBox="0 0 22 22" width="22" height="22">
	<style>
		tspan { white-space:pre }
		.shp0 { fill: #000000 } 
	</style>
	<g id="Head">
		<g id="Icon">
			<path id="user" class="shp0" d="M18.78 3.22C14.49 -1.07 7.51 -1.07 3.22 3.22C1.72 4.72 0.69 6.61 0.24 8.69C-0.19 10.71 -0.05 12.8 0.65 14.73C0.74 14.97 0.99 15.09 1.22 15C1.46 14.92 1.58 14.66 1.49 14.43C0.85 12.65 0.72 10.73 1.12 8.87C1.53 6.97 2.47 5.23 3.85 3.85C7.79 -0.09 14.21 -0.09 18.15 3.85C20.02 5.73 21.07 8.22 21.1 10.88C21.14 13.53 20.15 16.04 18.33 17.96C18.3 17.98 18.28 18 18.26 18.03C18.22 18.07 18.19 18.11 18.15 18.15C14.21 22.09 7.79 22.09 3.85 18.15C3.83 18.13 3.81 18.11 3.79 18.08C3.79 18.04 3.79 18 3.79 17.96C3.79 17.87 3.79 17.78 3.8 17.69C3.8 17.66 3.8 17.63 3.8 17.6C3.8 17.54 3.81 17.48 3.81 17.42C3.81 17.39 3.82 17.35 3.82 17.32C3.82 17.27 3.83 17.21 3.83 17.16C3.84 17.12 3.84 17.08 3.85 17.05C3.86 17 3.86 16.95 3.87 16.9C3.87 16.86 3.88 16.82 3.89 16.78C3.9 16.73 3.9 16.68 3.91 16.64C3.92 16.6 3.93 16.56 3.94 16.52C3.94 16.47 3.95 16.43 3.96 16.38C3.97 16.34 3.98 16.3 3.99 16.26C4 16.22 4.01 16.17 4.03 16.12C4.04 16.09 4.05 16.05 4.06 16.01C4.07 15.96 4.08 15.92 4.1 15.87C4.11 15.83 4.12 15.8 4.13 15.76C4.15 15.71 4.16 15.67 4.18 15.62C4.19 15.59 4.2 15.55 4.22 15.51C4.23 15.47 4.25 15.42 4.27 15.38C4.28 15.34 4.29 15.31 4.31 15.27C4.33 15.23 4.34 15.18 4.36 15.14C4.38 15.1 4.39 15.07 4.41 15.03C4.43 14.99 4.45 14.95 4.47 14.9C4.48 14.87 4.5 14.83 4.52 14.8C4.54 14.75 4.56 14.71 4.58 14.67C4.6 14.64 4.62 14.6 4.64 14.57C4.66 14.52 4.68 14.48 4.7 14.44C4.72 14.41 4.74 14.37 4.76 14.34C4.78 14.3 4.81 14.26 4.83 14.22C4.85 14.19 4.87 14.15 4.89 14.12C4.92 14.08 4.94 14.04 4.97 14C4.99 13.97 5.01 13.94 5.04 13.9C5.06 13.86 5.09 13.83 5.12 13.79C5.14 13.76 5.16 13.72 5.18 13.69C5.21 13.66 5.24 13.62 5.27 13.58C5.29 13.55 5.32 13.52 5.34 13.49C5.37 13.45 5.4 13.41 5.43 13.38C5.45 13.35 5.48 13.32 5.5 13.29C5.54 13.25 5.57 13.22 5.6 13.18C5.62 13.15 5.65 13.12 5.68 13.09C5.71 13.06 5.74 13.02 5.77 12.99C5.8 12.96 5.83 12.93 5.85 12.91C5.89 12.87 5.92 12.84 5.96 12.8C5.98 12.78 6.01 12.75 6.04 12.73C6.07 12.69 6.11 12.66 6.15 12.63C6.17 12.6 6.2 12.58 6.23 12.55C6.27 12.52 6.31 12.49 6.34 12.45C6.37 12.43 6.4 12.4 6.43 12.38C6.47 12.35 6.51 12.32 6.55 12.29C6.58 12.26 6.61 12.24 6.63 12.22C6.68 12.19 6.72 12.16 6.76 12.13C6.79 12.11 6.82 12.09 6.85 12.07C6.89 12.03 6.94 12 6.99 11.97C7.02 11.95 7.04 11.93 7.06 11.92C7.13 11.88 7.19 11.84 7.26 11.8C7.27 11.79 7.28 11.78 7.29 11.78C7.36 11.73 7.44 11.69 7.52 11.65C7.54 11.63 7.57 11.62 7.6 11.6C7.65 11.58 7.7 11.55 7.75 11.52C7.79 11.51 7.82 11.49 7.85 11.47C7.9 11.45 7.94 11.43 7.98 11.41C8.79 12.19 9.88 12.63 11 12.63C12.12 12.63 13.21 12.19 14.02 11.41C15.6 12.15 16.9 13.46 17.6 15.06C17.7 15.29 17.97 15.39 18.19 15.29C18.42 15.19 18.52 14.93 18.42 14.7C17.65 12.95 16.31 11.55 14.62 10.71C15.11 9.98 15.37 9.13 15.37 8.25C15.37 5.84 13.41 3.88 11 3.88C10.75 3.88 10.55 4.08 10.55 4.32C10.55 4.57 10.75 4.77 11 4.77C12.92 4.77 14.48 6.33 14.48 8.25C14.48 9.11 14.16 9.94 13.58 10.58C13.58 10.58 13.58 10.58 13.58 10.58C12.92 11.31 11.98 11.73 11 11.73C10.02 11.73 9.08 11.31 8.42 10.58C8.42 10.58 8.42 10.58 8.42 10.58C7.84 9.94 7.52 9.11 7.52 8.25C7.52 7.32 7.89 6.44 8.55 5.78C8.73 5.6 8.73 5.32 8.56 5.14C8.38 4.97 8.1 4.97 7.92 5.14C7.09 5.97 6.63 7.07 6.63 8.25C6.63 9.13 6.89 9.98 7.38 10.71C7.38 10.71 7.37 10.71 7.37 10.71C7.34 10.73 7.3 10.75 7.27 10.77C7.21 10.79 7.16 10.82 7.11 10.85C7.07 10.87 7.04 10.89 7 10.91C6.95 10.94 6.9 10.97 6.85 10.99C6.82 11.02 6.78 11.04 6.74 11.06C6.69 11.09 6.65 11.12 6.6 11.15C6.57 11.17 6.53 11.2 6.49 11.22C6.45 11.25 6.4 11.28 6.36 11.31C6.32 11.34 6.29 11.36 6.25 11.39C6.21 11.42 6.17 11.45 6.12 11.48C6.09 11.51 6.05 11.54 6.02 11.56C5.98 11.6 5.94 11.63 5.9 11.66C5.86 11.69 5.83 11.72 5.79 11.75C5.75 11.78 5.71 11.81 5.67 11.85C5.64 11.88 5.61 11.91 5.57 11.94C5.53 11.97 5.5 12.01 5.46 12.04C5.43 12.07 5.39 12.1 5.36 12.13C5.32 12.17 5.29 12.2 5.25 12.24C5.22 12.27 5.19 12.3 5.16 12.34C5.12 12.37 5.09 12.41 5.05 12.45C5.02 12.48 4.99 12.51 4.96 12.55C4.93 12.59 4.89 12.63 4.86 12.67C4.83 12.7 4.8 12.73 4.78 12.76C4.74 12.8 4.71 12.85 4.67 12.89C4.65 12.92 4.62 12.95 4.6 12.99C4.56 13.03 4.52 13.08 4.49 13.13C4.47 13.16 4.45 13.18 4.42 13.21C4.38 13.28 4.34 13.34 4.29 13.4C4.28 13.42 4.27 13.43 4.26 13.45C4.21 13.53 4.16 13.61 4.11 13.69C4.09 13.72 4.07 13.74 4.06 13.77C4.02 13.83 3.99 13.88 3.96 13.93C3.94 13.97 3.92 14 3.9 14.04C3.88 14.09 3.85 14.14 3.82 14.19C3.8 14.22 3.78 14.26 3.77 14.3C3.74 14.34 3.72 14.39 3.69 14.44C3.68 14.48 3.66 14.52 3.64 14.56C3.62 14.61 3.6 14.65 3.57 14.7C3.56 14.74 3.54 14.78 3.52 14.82C3.5 14.87 3.48 14.92 3.46 14.97C3.45 15.01 3.43 15.05 3.42 15.09C3.4 15.14 3.38 15.19 3.36 15.24C3.35 15.28 3.33 15.32 3.32 15.36C3.3 15.41 3.29 15.46 3.27 15.51C3.26 15.55 3.24 15.6 3.23 15.64C3.22 15.69 3.2 15.74 3.19 15.79C3.18 15.83 3.17 15.88 3.15 15.92C3.14 15.97 3.13 16.02 3.12 16.07C3.11 16.12 3.1 16.16 3.09 16.2C3.07 16.25 3.06 16.31 3.05 16.36C3.05 16.4 3.04 16.45 3.03 16.49C3.02 16.54 3.01 16.6 3 16.65C2.99 16.69 2.99 16.74 2.98 16.78C2.97 16.83 2.97 16.89 2.96 16.95C2.95 16.99 2.95 17.03 2.94 17.07C2.94 17.13 2.93 17.19 2.93 17.25C2.92 17.29 2.92 17.33 2.92 17.37C2.91 17.43 2.91 17.5 2.91 17.56C2.9 17.6 2.9 17.63 2.9 17.66C2.9 17.76 2.89 17.86 2.89 17.96C2.89 18.07 2.9 18.17 2.9 18.29C2.9 18.31 2.91 18.34 2.91 18.36C2.91 18.36 2.91 18.37 2.91 18.37C2.92 18.39 2.93 18.42 2.94 18.44C2.94 18.44 2.94 18.44 2.94 18.44C2.95 18.47 2.96 18.49 2.97 18.51C2.97 18.51 2.98 18.51 2.98 18.52C2.99 18.54 3.01 18.56 3.02 18.57C3.02 18.57 3.02 18.58 3.03 18.58L3.08 18.64C3.13 18.69 3.17 18.73 3.22 18.78C5.37 20.93 8.18 22 11 22C13.82 22 16.64 20.93 18.78 18.78C18.83 18.73 18.87 18.69 18.92 18.64L18.97 18.58C20.96 16.49 22.03 13.75 22 10.87C21.97 7.98 20.82 5.26 18.78 3.22Z" />
		</g>
	</g>
</svg>